<?xml version="1.0" standalone="no"?>
<!DOCTYPE svg PUBLIC "-//W3C//DTD SVG 20010904//EN"
 "http://www.w3.org/TR/2001/REC-SVG-20010904/DTD/svg10.dtd">
<svg version="1.0" xmlns="http://www.w3.org/2000/svg"
 width="500.000000pt" height="500.000000pt" viewBox="0 0 500.000000 500.000000"
 preserveAspectRatio="xMidYMid meet">

<g transform="translate(0.000000,500.000000) scale(0.100000,-0.100000)"
fill="#000000" stroke="none">
<path d="M1310 3979 c0 -6 70 -162 156 -347 86 -186 166 -358 177 -384 l20
-48 883 0 c486 0 884 3 884 8 -1 4 -81 180 -179 392 l-179 385 -881 3 c-637 1
-881 -1 -881 -9z"/>
<path d="M2586 3098 c18 -22 174 -196 348 -391 44 -48 82 -86 86 -85 4 2 72
75 151 163 78 88 178 199 222 248 l79 87 -452 0 -453 0 19 -22z"/>
<path d="M2310 3012 c-96 -54 -247 -138 -335 -187 -88 -49 -168 -94 -178 -101
-16 -10 -7 -24 95 -146 62 -74 250 -299 418 -499 167 -200 369 -440 448 -534
79 -93 175 -207 214 -253 45 -54 76 -82 87 -80 20 3 700 380 701 388 0 3 -70
88 -156 190 -192 227 -709 843 -937 1115 -92 110 -171 201 -175 203 -4 1 -86
-42 -182 -96z"/>
<path d="M1740 2618 c-11 -79 -87 -824 -85 -826 2 -2 86 -8 187 -13 101 -5
284 -16 408 -23 124 -8 226 -13 228 -11 2 2 -163 200 -367 440 -204 240 -371
435 -371 433z"/>
</g>
</svg>
